<svg xmlns="http://www.w3.org/2000/svg" viewBox="0 0 262.35 258.01"><defs><style>.cls-1{fill:#ffe400;}</style></defs><title>food</title><g id="Layer_2" data-name="Layer 2"><g id="Layer_1-2" data-name="Layer 1"><path class="cls-1" d="M173.41,51.86a89,89,0,0,0-79,48,85.63,85.63,0,0,1,14.33,4.59,84.18,84.18,0,0,1,39,121.55A89,89,0,1,0,173.41,51.86Z"/><path class="cls-1" d="M107.19,3.48A44.57,44.57,0,0,0,169,44,44.58,44.58,0,0,0,107.19,3.48Z"/><path class="cls-1" d="M178.32,44.21a28.66,28.66,0,0,0,39.75-26,28.65,28.65,0,0,0-39.75,26Z"/><path class="cls-1" d="M90.22,192l24.62,29.38a1.69,1.69,0,0,0,2.52.09,57.54,57.54,0,0,0,14.42-27,1.7,1.7,0,0,0-1.52-2.05l-31-2.58-7.56-.65A1.69,1.69,0,0,0,90.22,192Z"/><path class="cls-1" d="M19,184.38a56.9,56.9,0,0,0,9.15,28.73,1.71,1.71,0,0,0,2.52.39l29.13-24.44a1.69,1.69,0,0,0-.94-3l-38-3.46A1.7,1.7,0,0,0,19,184.38Z"/><path class="cls-1" d="M73.57,125.1a58.78,58.78,0,0,0-29.12,9.46,1.68,1.68,0,0,0-.35,2.49l24.84,29.62a1.69,1.69,0,0,0,3-.94l3.42-38.79A1.69,1.69,0,0,0,73.57,125.1Z"/><path class="cls-1" d="M91.65,175.91a1.7,1.7,0,0,0,1,3l.4,0,38.19,3.33a1.69,1.69,0,0,0,1.84-1.74A56.89,56.89,0,0,0,124,151a1.7,1.7,0,0,0-2.51-.37c-10,8.47-22.06,18.68-29.81,25.23Z"/><path class="cls-1" d="M76,258A76,76,0,0,0,91,107.44,77.37,77.37,0,0,0,76,106a76,76,0,0,0,0,152Zm0-142a66,66,0,1,1-65.95,66A66,66,0,0,1,76,116Z"/><path class="cls-1" d="M65.71,236.33,69,198.44A1.7,1.7,0,0,0,66.26,197l-29,24.34a1.68,1.68,0,0,0-.07,2.53,57.14,57.14,0,0,0,26.5,14A1.69,1.69,0,0,0,65.71,236.33Z"/><path class="cls-1" d="M33.81,143.65a57.3,57.3,0,0,0-13.67,26.82,1.71,1.71,0,0,0,1.51,2l38,3.47a1.69,1.69,0,0,0,1.45-2.77L36.36,143.71A1.69,1.69,0,0,0,33.81,143.65Z"/><path class="cls-1" d="M106.91,227.87,82.2,198.38a1.69,1.69,0,0,0-3,.94l-3.5,39.85h.06a57.86,57.86,0,0,0,30.72-8.77A1.7,1.7,0,0,0,106.91,227.87Z"/><path class="cls-1" d="M114.91,142.83a1.69,1.69,0,0,0,.08-2.53,57.15,57.15,0,0,0-29.25-14.51h-.06l-.08.87-1.11,12.68L82.1,166.55A1.7,1.7,0,0,0,84.88,168l3-2.54C95.93,158.74,106.68,149.71,114.91,142.83Z"/></g></g></svg>