<svg xmlns="http://www.w3.org/2000/svg" viewBox="0 0 259.37 262"><defs><style>.cls-1{fill:#ffe400;}</style></defs><title>money</title><g id="Layer_2" data-name="Layer 2"><g id="Layer_1-2" data-name="Layer 1"><polygon class="cls-1" points="5.89 62.91 21.77 47.03 97.51 47.03 179.35 7.94 203.79 49.48 230.66 48.25 242.88 62.91 242.88 128.88 252.65 131.32 252.65 182.63 241.66 186.29 239.21 247.38 228.22 260.81 21.77 260.81 3.44 244.93 5.89 62.91"/><path d="M259.37,122.05H246.8V64.23a25.17,25.17,0,0,0-25.14-25.15h-17L187.21,7.76A15.08,15.08,0,0,0,166.7,1.9L99.83,39.08H25.14A25.17,25.17,0,0,0,0,64.22V236.86A25.17,25.17,0,0,0,25.14,262H221.66a25.17,25.17,0,0,0,25.14-25.14v-50.7h12.57V122.05ZM221.66,49.14a15.06,15.06,0,0,1,14.92,13.41h-18.9l-7.45-13.41ZM171.59,10.69a5.12,5.12,0,0,1,6.83,2l27.76,49.91H78.33Zm65.15,226.17a15.1,15.1,0,0,1-15.08,15.08H25.14a15.09,15.09,0,0,1-15.08-15.08V64.23A15.1,15.1,0,0,1,25.14,49.14H81.75L57.63,62.55H28.28a5,5,0,0,0,0,10.06H236.74v49.45H200a31,31,0,0,0-31,31v2.16a31,31,0,0,0,31,31h36.77v50.7Zm12.57-60.76H200a20.94,20.94,0,0,1-20.92-20.91V153A20.94,20.94,0,0,1,200,132.11h49.34Zm-33.94-21.58a11.1,11.1,0,1,1-11.1-11.1A11.09,11.09,0,0,1,215.37,154.52Z"/><path d="M130.73,191.58a21.34,21.34,0,0,1,2.74,6.08,23.33,23.33,0,0,1,.86,6.08,18,18,0,0,1-5.48,13.1,19.41,19.41,0,0,1-6,3.94,18.63,18.63,0,0,1-7.36,1.46A17.13,17.13,0,0,1,99.9,213.5L84.31,187.64v15.59a19,19,0,0,1-1.46,7.53,19.35,19.35,0,0,1-3.94,6,17.79,17.79,0,0,1-5.82,4,18,18,0,0,1-7.28,1.46,19.52,19.52,0,0,1-8.22-1.8,17.26,17.26,0,0,1-6.51-5.05q-4.45-5.65-4.46-16.1V128.88a30.29,30.29,0,0,1,1.38-10,15.71,15.71,0,0,1,4.79-6.76,17.6,17.6,0,0,1,6.77-3.94,39,39,0,0,1,10.36-1H85.68a101.08,101.08,0,0,1,10.79.43,68.24,68.24,0,0,1,7.54,1.28,41.16,41.16,0,0,1,12.16,5.66,40.46,40.46,0,0,1,9.42,9,42.52,42.52,0,0,1,6.17,11.56A39.63,39.63,0,0,1,134,148.24a38.61,38.61,0,0,1-2.83,15,52.27,52.27,0,0,1-9.34,14.13ZM84.31,154.41h4.11q8.56.34,8.57-6,0-6.51-8.74-6.16H86.54a17.72,17.72,0,0,1-2.23-.18Z"/></g></g></svg>