<svg xmlns="http://www.w3.org/2000/svg" viewBox="0 0 250.87 251.56"><defs><style>.cls-1{fill:#ffe400;}</style></defs><title>time</title><g id="Layer_2" data-name="Layer 2"><g id="Layer_1-2" data-name="Layer 1"><path class="cls-1" d="M197.32,84l3.53-2A90.23,90.23,0,0,0,173.91,55l-2,3.53a4.29,4.29,0,0,1-3.71,2.14,4.29,4.29,0,0,1-3.7-6.41l2.05-3.55a89.06,89.06,0,0,0-36.81-9.83v4.06a4.28,4.28,0,0,1-8.55,0V40.85l-9.58,1.59A107,107,0,0,0,88.72,48.9l-4.37,1.78,2.05,3.54A4.28,4.28,0,0,1,79,58.49L77,55A90.23,90.23,0,0,0,50,81.9l3.53,2a4.28,4.28,0,0,1-2.14,8,4.37,4.37,0,0,1-2.14-.57l-3.54-2a89.06,89.06,0,0,0-9.83,36.81H40a4.28,4.28,0,0,1,0,8.55H35.89a89,89,0,0,0,9.84,36.8l3.54-2a4.27,4.27,0,1,1,4.27,7.4l-3.53,2A90.34,90.34,0,0,0,77,205.8l2-3.53a4.27,4.27,0,1,1,7.4,4.27l-2,3.54a88.86,88.86,0,0,0,36.8,9.83v-4a4.28,4.28,0,1,1,8.55,0v4a88.87,88.87,0,0,0,36.81-9.83l-2-3.54a4.28,4.28,0,0,1,7.41-4.27l2,3.53a90.34,90.34,0,0,0,26.94-26.94l-3.54-2a4.27,4.27,0,1,1,4.28-7.4l3.54,2a89,89,0,0,0,9.83-36.8h-4.05a4.28,4.28,0,1,1,0-8.55H215a89,89,0,0,0-9.83-36.81l-3.54,2a4.36,4.36,0,0,1-2.13.57,4.27,4.27,0,0,1-2.14-8Zm-24.87,50.71H141.92a17.06,17.06,0,1,1-20.76-20.76V70.55a4.28,4.28,0,0,1,8.55,0V113.9a17.07,17.07,0,0,1,12.21,12.22h30.53a4.27,4.27,0,1,1,0,8.54Z"/><path d="M122.65,221.49l-1.57-.08a90,90,0,0,1-37.42-10l-1.4-.72,2.83-4.91a2.77,2.77,0,1,0-4.8-2.77l-2.83,4.89-1.32-.85a92.64,92.64,0,0,1-27.39-27.39l-.85-1.32,4.89-2.83A2.78,2.78,0,0,0,50,170.71l-4.9,2.84-.73-1.4a90.16,90.16,0,0,1-10-37.42l-.08-1.57H40a2.78,2.78,0,0,0,0-5.55H34.33L34.4,126a90.06,90.06,0,0,1,10-37.43l.72-1.4L50,90.05a2.78,2.78,0,0,0,3.79-1,2.78,2.78,0,0,0-1-3.79l-4.9-2.82.86-1.33A92.38,92.38,0,0,1,76.14,53.7l1.33-.85,2.82,4.9A2.78,2.78,0,0,0,85.1,55l-2.91-5,6-2.43A108.56,108.56,0,0,1,111.34,41l11.32-1.88v5.83a2.78,2.78,0,0,0,5.55,0V39.28l1.57.07a90.1,90.1,0,0,1,37.43,10l1.39.72L165.77,55a2.77,2.77,0,0,0,1,3.78,2.84,2.84,0,0,0,3.79-1l2.82-4.9,1.33.86a92.34,92.34,0,0,1,27.38,27.38l.86,1.33-4.9,2.83a2.77,2.77,0,0,0,2.77,4.8l4.9-2.84.72,1.4a90.06,90.06,0,0,1,10,37.43l.08,1.57h-5.63a2.78,2.78,0,1,0,0,5.55h5.63l-.08,1.57a90.06,90.06,0,0,1-10,37.42l-.72,1.4-4.9-2.84a2.78,2.78,0,0,0-2.78,4.81l4.9,2.83-.85,1.32a92.53,92.53,0,0,1-27.39,27.39l-1.33.85L170.57,203a2.78,2.78,0,0,0-4.81,2.77l2.84,4.91-1.4.72a90,90,0,0,1-37.43,10l-1.57.08v-5.63a2.78,2.78,0,1,0-5.55,0Zm2.78-11.41a5.78,5.78,0,0,1,5.77,5.78v2.47a86.87,86.87,0,0,0,33.22-8.87l-1.25-2.17a5.77,5.77,0,1,1,10-5.78l1.25,2.16a89.56,89.56,0,0,0,24.31-24.31l-2.16-1.24A5.78,5.78,0,0,1,198,167.53a5.71,5.71,0,0,1,4.37.59l2.17,1.25a87.13,87.13,0,0,0,8.87-33.21h-2.47a5.78,5.78,0,1,1,0-11.55h2.47a87.13,87.13,0,0,0-8.87-33.22l-2.17,1.25a5.77,5.77,0,1,1-5.77-10l2.16-1.25a89.66,89.66,0,0,0-24.31-24.3l-1.25,2.15a5.8,5.8,0,0,1-5,2.89,5.78,5.78,0,0,1-5-8.66l1.26-2.18a87,87,0,0,0-33.22-8.86v2.47a5.78,5.78,0,0,1-11.55,0V42.62l-7.83,1.3a105.82,105.82,0,0,0-22.55,6.37l-2.77,1.13,1.19,2a5.78,5.78,0,0,1-10,5.78l-1.25-2.16A89.56,89.56,0,0,0,52.14,81.4l2.16,1.24A5.79,5.79,0,0,1,57,86.15a5.73,5.73,0,0,1-.58,4.38,5.8,5.8,0,0,1-5,2.89,5.87,5.87,0,0,1-2.89-.77l-2.17-1.26a86.94,86.94,0,0,0-8.86,33.22H40a5.78,5.78,0,0,1,0,11.55H37.48a87.13,87.13,0,0,0,8.87,33.21l2.17-1.25a5.77,5.77,0,0,1,5.77,10l-2.15,1.24a89.42,89.42,0,0,0,24.31,24.31l1.24-2.15a5.77,5.77,0,1,1,10,5.77l-1.25,2.17a87.13,87.13,0,0,0,33.21,8.87v-2.47A5.79,5.79,0,0,1,125.43,210.08Zm0-61.09a18.56,18.56,0,0,1-5.77-36.21V70.55a5.78,5.78,0,0,1,11.55,0v42.23A18.56,18.56,0,0,1,143,124.62h29.41a5.77,5.77,0,1,1,0,11.54H143A18.56,18.56,0,0,1,125.43,149Zm0-81.21a2.77,2.77,0,0,0-2.77,2.77v44.51l-1.12.29a15.56,15.56,0,1,0,18.93,18.94l.29-1.13h31.69a2.77,2.77,0,1,0,0-5.54H140.76l-.29-1.13a15.59,15.59,0,0,0-11.14-11.14l-1.12-.29V70.55A2.78,2.78,0,0,0,125.43,67.78Z"/><circle class="cls-1" cx="125.43" cy="130.39" r="8.55"/><path d="M125.43,140.44a10.05,10.05,0,1,1,10-10.05A10.06,10.06,0,0,1,125.43,140.44Zm0-17.1a7,7,0,1,0,7,7A7.06,7.06,0,0,0,125.43,123.34Z"/><path class="cls-1" d="M215.66,43.24l17.51,17.51a4.27,4.27,0,0,0,6,0,34.71,34.71,0,0,0-49.08-49.09,4.29,4.29,0,0,0,0,6.05L209.62,37.2l-7.26,7.26a115.13,115.13,0,0,0-153.85,0L41.25,37.2,60.74,17.71a4.29,4.29,0,0,0,0-6.05A34.71,34.71,0,0,0,11.65,60.75a4.29,4.29,0,0,0,6,0L35.2,43.24l7.17,7.17A115.21,115.21,0,0,0,67,229.83L54,242.77a4.27,4.27,0,0,0,6,6l14.74-14.74a115.18,115.18,0,0,0,101.24,0l14.75,14.74a4.27,4.27,0,0,0,6,0,4.27,4.27,0,0,0,0-6L183.9,229.83A115.22,115.22,0,0,0,208.5,50.41Zm-5.25,37.82c0,.07.12.11.16.18s0,.16.08.24a97.94,97.94,0,0,1,0,97.83c0,.08,0,.16-.08.24s-.15.18-.22.28a99.1,99.1,0,0,1-35.58,35.54c-.07,0-.11.12-.18.16s-.24.09-.35.14a97.94,97.94,0,0,1-97.62,0c-.11,0-.23-.08-.34-.14s-.11-.12-.18-.16a99,99,0,0,1-35.58-35.54c-.07-.1-.16-.18-.22-.28a1.13,1.13,0,0,1-.08-.24,97.94,97.94,0,0,1,0-97.83c0-.08,0-.16.08-.24s.11-.11.16-.18A99,99,0,0,1,76.1,45.42c.07-.05.11-.12.18-.16s.16,0,.24-.08a97.94,97.94,0,0,1,97.83,0c.08,0,.16,0,.24.08s.11.11.18.16A99,99,0,0,1,210.41,81.06Z"/><path d="M193.82,251.56a5.73,5.73,0,0,1-4.08-1.69l-14-14a116.64,116.64,0,0,1-100.63,0l-14,14A5.77,5.77,0,0,1,53,241.71l11.59-11.59a117.53,117.53,0,0,1-56-99.73,116.25,116.25,0,0,1,31.74-80L35.2,45.37,18.76,61.81a5.78,5.78,0,0,1-8.17,0A36.21,36.21,0,0,1,61.8,10.6a5.78,5.78,0,0,1,0,8.17L43.37,37.2l5.2,5.2a116.64,116.64,0,0,1,153.73,0l5.2-5.2L189.07,18.77a5.78,5.78,0,0,1,0-8.17,36.21,36.21,0,0,1,51.2,51.21,5.77,5.77,0,0,1-8.16,0L215.66,45.37l-5.06,5.06a116.24,116.24,0,0,1,31.73,80,117.52,117.52,0,0,1-56,99.73l11.58,11.59a5.77,5.77,0,0,1-4.08,9.85Zm-17.47-19.31,15.51,15.5a2.83,2.83,0,0,0,3.92,0,2.78,2.78,0,0,0,0-3.92l-14.31-14.31,1.67-1a114.5,114.5,0,0,0,56.19-98.14,113.27,113.27,0,0,0-31.91-78.94l-1-1.06,9.26-9.27,18.57,18.57a2.85,2.85,0,0,0,3.92,0,33.21,33.21,0,0,0-47-47,2.78,2.78,0,0,0-.81,2,2.74,2.74,0,0,0,.81,2L211.75,37.2l-9.33,9.33-1.06-1a113.63,113.63,0,0,0-151.85,0l-1.06,1L39.13,37.2,59.68,16.65a2.78,2.78,0,0,0,.81-2,2.7,2.7,0,0,0-.81-2A33.19,33.19,0,0,0,3,36.21a33,33,0,0,0,9.71,23.48,2.85,2.85,0,0,0,3.92,0L35.2,41.12l9.27,9.27-1,1.06a113.28,113.28,0,0,0-31.92,78.94,114.51,114.51,0,0,0,56.2,98.14l1.67,1L55.09,243.83a2.76,2.76,0,0,0,0,3.92,2.83,2.83,0,0,0,3.92,0l15.5-15.5,1,.47a113.65,113.65,0,0,0,99.92,0Zm-50.92-2.05A99.66,99.66,0,0,1,76,217a1.93,1.93,0,0,1-.44-.2,1.57,1.57,0,0,1-.33-.25,100.55,100.55,0,0,1-35.92-35.9,2.22,2.22,0,0,1-.28-.39,1.84,1.84,0,0,1-.16-.38,99.45,99.45,0,0,1,0-99,2,2,0,0,1,.15-.36,2.38,2.38,0,0,1,.27-.37A100.56,100.56,0,0,1,75.19,44.21a2.79,2.79,0,0,1,.33-.25,2,2,0,0,1,.4-.17,99.39,99.39,0,0,1,99,0,1.59,1.59,0,0,1,.35.15,1.54,1.54,0,0,1,.37.27,100.45,100.45,0,0,1,35.94,35.93,2,2,0,0,1,.24.33,2.58,2.58,0,0,1,.18.41,99.4,99.4,0,0,1,0,99,1.88,1.88,0,0,1-.14.36,3,3,0,0,1-.3.42,100.63,100.63,0,0,1-35.92,35.9,1.76,1.76,0,0,1-.34.25,4.14,4.14,0,0,1-.43.2A99.72,99.72,0,0,1,125.43,230.2Zm-48.34-16,.17.07.11.06a96.45,96.45,0,0,0,96.13,0l.11-.06.16-.07.15-.11.09-.06a97.66,97.66,0,0,0,35.05-35l.06-.1a1.13,1.13,0,0,1,.1-.13,1.54,1.54,0,0,1,.08-.19,96.44,96.44,0,0,0,0-96.42l-.08-.15,0-.08-.07-.09-.06-.1A97.42,97.42,0,0,0,174,46.72l-.19-.14-.14-.06a96.41,96.41,0,0,0-96.42,0l-.2.09-.1.08-.11.07A97.47,97.47,0,0,0,41.76,81.81l-.13.18-.06.15a96.44,96.44,0,0,0,0,96.42l.07.14a.78.78,0,0,1,0,.14l.11.13.06.1a97.63,97.63,0,0,0,35,35A1.91,1.91,0,0,1,77.09,214.24Z"/></g></g></svg>